<?xml version="1.0" encoding="UTF-8"?>
<svg width="64px" height="60px" viewBox="0 0 64 60" version="1.1" xmlns="http://www.w3.org/2000/svg" xmlns:xlink="http://www.w3.org/1999/xlink">
    <!-- Generator: Sketch 52.2 (67145) - http://www.bohemiancoding.com/sketch -->
    <title>like</title>
    <desc>Created with Sketch.</desc>
    <g id="Page-1" stroke="none" stroke-width="1" fill="none" fill-rule="evenodd">
        <g id="like" stroke="#232323" stroke-width="3">
            <path d="M4.66666667,57.8333333 L11.3333333,57.8333333 C13.0782395,57.8333333 14.5,56.4115729 14.5,54.6666667 L14.5,24 C14.5,22.2550938 13.0782395,20.8333333 11.3333333,20.8333333 L4.66666667,20.8333333 C2.92176046,20.8333333 1.5,22.2550938 1.5,24 L1.5,54.6666667 C1.5,56.4115729 2.92176046,57.8333333 4.66666667,57.8333333 Z" id="Path"></path>
            <path d="M21.5,22.8564995 L21.5,54.1245208 C27.5901962,56.7654671 35.7371264,58.5 46.0826667,58.5 L50.3493333,58.5 C54.8175637,58.5 58.621164,55.2941083 59.3777836,50.8919586 L62.3642333,33.5598876 C63.3268094,27.9448601 59.0215871,22.8333333 53.336,22.8333333 L38.3222824,22.8333333 L39.4076925,20.6625129 C39.4503193,20.5772594 39.5412215,20.3738116 39.6649692,20.0575676 C39.880265,19.5073673 40.0977744,18.8548389 40.3021876,18.1053239 C40.8931906,15.9383129 41.2493333,13.4453137 41.2493333,10.6666667 C41.2493333,4.92261856 37.4844529,1.5 34.0826667,1.5 C32.1837879,1.5 31.5826667,2.55196221 31.5826667,8 C31.5826667,13.7092667 27.5453438,18.6795503 21.5,22.8564995 Z" id="Path"></path>
        </g>
    </g>
</svg>