<?xml version="1.0" encoding="UTF-8"?>
<svg width="141px" height="134px" viewBox="0 0 141 134" version="1.1" xmlns="http://www.w3.org/2000/svg" xmlns:xlink="http://www.w3.org/1999/xlink">
    <!-- Generator: Sketch 52.2 (67145) - http://www.bohemiancoding.com/sketch -->
    <title>comment</title>
    <desc>Created with Sketch.</desc>
    <g id="Page-1" stroke="none" stroke-width="1" fill="none" fill-rule="evenodd">
        <g id="comment" transform="translate(1.000000, 1.000000)" fill="#999999" fill-rule="nonzero">
            <path d="M37.5,54 C32.26075,54 28,58.0365 28,63 C28,67.9635 32.26075,72 37.5,72 C42.73925,72 47,67.9635 47,63 C47,58.0365 42.73925,54 37.5,54 Z M37.5,67.5 C34.880375,67.5 32.75,65.48175 32.75,63 C32.75,60.51825 34.880375,58.5 37.5,58.5 C40.119625,58.5 42.25,60.51825 42.25,63 C42.25,65.48175 40.119625,67.5 37.5,67.5 Z" id="Shape"></path>
            <path d="M69.5,54 C64.26075,54 60,58.0365 60,63 C60,67.9635 64.26075,72 69.5,72 C74.73925,72 79,67.9635 79,63 C79,58.0365 74.73925,54 69.5,54 Z M69.5,67.5 C66.880375,67.5 64.75,65.48175 64.75,63 C64.75,60.51825 66.880375,58.5 69.5,58.5 C72.119625,58.5 74.25,60.51825 74.25,63 C74.25,65.48175 72.119625,67.5 69.5,67.5 Z" id="Shape"></path>
            <path d="M101.5,54 C96.26075,54 92,58.0365 92,63 C92,67.9635 96.26075,72 101.5,72 C106.73925,72 111,67.9635 111,63 C111,58.0365 106.73925,54 101.5,54 Z M101.5,67.5 C98.880375,67.5 96.75,65.48175 96.75,63 C96.75,60.51825 98.880375,58.5 101.5,58.5 C104.119625,58.5 106.25,60.51825 106.25,63 C106.25,65.48175 104.119625,67.5 101.5,67.5 Z" id="Shape"></path>
            <path d="M69.5000934,0 C31.1778449,0 0.000186792153,28.0488421 0.000186792153,62.5263158 C0.000186792153,74.5776842 3.813415,86.2515789 11.0460386,96.3461053 C9.67689045,111.484421 6.00729539,122.722947 0.678969213,128.046947 C-0.0252965069,128.750947 -0.201362937,129.827789 0.243436465,130.717053 C0.637269269,131.511368 1.44810151,132 2.31685035,132 C2.42341687,132 2.52998339,131.993053 2.63886658,131.976842 C3.57711532,131.844842 25.372286,128.709263 41.1371815,119.612842 C50.0887695,123.223158 59.6241567,125.052632 69.5000934,125.052632 C107.822342,125.052632 139,97.0037895 139,62.5263158 C139,28.0488421 107.822342,0 69.5000934,0 Z M69.5000934,120.421053 C61.4218876,120.421053 53.5938814,119.103368 46.1597081,116.528211 C55.6001121,110.632211 55.620962,110.215368 55.6140121,108.849053 C55.6093787,108.040842 55.1715293,107.269684 54.4765303,106.855158 C53.4224483,106.222947 52.0648835,106.524 51.3768344,107.526737 C50.1073028,108.534105 44.6492435,112.030947 39.7610834,115.048421 C39.7610834,115.048421 39.7587667,115.048421 39.7587667,115.048421 C29.4125473,121.294105 15.4893993,124.779368 7.76564302,126.351789 C12.8669362,117.852842 14.9264501,105.544421 15.7349656,95.876 C15.7812989,95.3178947 15.6237658,94.7621053 15.2924829,94.3082105 C8.31932561,84.8574737 4.6335139,73.8644211 4.6335139,62.5263158 C4.6335139,30.6031579 33.7331248,4.63157895 69.5000934,4.63157895 C105.267062,4.63157895 134.366673,30.6031579 134.366673,62.5263158 C134.366673,94.4494737 105.267062,120.421053 69.5000934,120.421053 Z" id="Shape" stroke="#999999"></path>
        </g>
    </g>
</svg>