<?xml version="1.0" encoding="UTF-8"?>
<svg width="360px" height="320px" viewBox="0 0 360 320" version="1.1" xmlns="http://www.w3.org/2000/svg" xmlns:xlink="http://www.w3.org/1999/xlink">
    <!-- Generator: Sketch 52.2 (67145) - http://www.bohemiancoding.com/sketch -->
    <title>59499</title>
    <desc>Created with Sketch.</desc>
    <g id="Page-1" stroke="none" stroke-width="1" fill="none" fill-rule="evenodd">
        <g id="59499" fill="#999999">
            <path d="M126.343,44.98 L227.75,44.98 C230.164,44.98 232.121,43.023 232.121,40.608 C232.121,38.193 230.164,36.237 227.75,36.237 L126.343,36.237 C123.928,36.237 121.971,38.194 121.971,40.608 C121.972,43.023 123.928,44.98 126.343,44.98 Z" id="Path"></path>
            <path d="M355.398,197.191 C352.984,197.191 351.027,199.148 351.027,201.562 L351.027,295.417 C351.027,304.016 344.031,311.012 335.431,311.012 L24.34,311.012 C15.74,311.012 8.743,304.016 8.743,295.417 L8.743,60.574 C8.743,51.975 14.92,44.98 22.514,44.98 L40.656,44.98 C43.071,44.98 45.027,43.023 45.027,40.608 C45.027,38.193 43.07,36.237 40.656,36.237 L22.515,36.237 C10.1,36.237 0,47.155 0,60.574 L0,295.418 C0,308.838 10.92,319.756 24.34,319.756 L335.433,319.756 C348.853,319.756 359.771,308.838 359.771,295.418 L359.771,201.563 C359.77,199.148 357.814,197.191 355.398,197.191 Z" id="Path"></path>
            <path d="M311.238,44.98 L328.072,44.98 C331.258,44.98 334.289,46.262 336.605,48.589 C339.099,51.098 340.46,54.466 340.441,58.07 L340.183,105.78 C340.146,113.024 334.218,118.919 326.974,118.919 L44.874,118.919 C42.459,118.919 40.503,120.876 40.503,123.291 C40.503,125.706 42.46,127.662 44.874,127.662 L326.977,127.662 C339.016,127.662 348.864,117.867 348.928,105.829 L349.184,58.12 C349.217,52.169 346.95,46.597 342.805,42.426 C338.834,38.438 333.604,36.238 328.073,36.238 L311.239,36.238 C308.825,36.238 306.868,38.195 306.868,40.609 C306.867,43.023 308.826,44.98 311.238,44.98 Z" id="Path"></path>
            <path d="M79.036,64.713 L85.227,64.713 C95.5,64.713 103.858,56.357 103.858,46.084 L103.858,18.645 C103.858,8.372 95.5,0.016 85.227,0.016 L79.036,0.016 C68.763,0.016 60.405,8.372 60.405,18.645 L60.405,46.082 C60.404,56.356 68.763,64.713 79.036,64.713 Z M69.147,18.645 C69.147,13.193 73.583,8.758 79.035,8.758 L85.226,8.758 C90.678,8.758 95.114,13.193 95.114,18.645 L95.114,46.082 C95.114,51.534 90.678,55.969 85.226,55.969 L79.035,55.969 C73.583,55.969 69.147,51.534 69.147,46.082 L69.147,18.645 Z" id="Shape" fill-rule="nonzero"></path>
            <path d="M268.141,64.713 L274.33,64.713 C284.603,64.713 292.961,56.357 292.961,46.084 L292.961,18.645 C292.961,8.372 284.604,0.016 274.33,0.016 L268.141,0.016 C257.868,0.016 249.51,8.372 249.51,18.645 L249.51,46.082 C249.51,56.356 257.867,64.713 268.141,64.713 Z M258.252,18.645 C258.252,13.193 262.688,8.758 268.141,8.758 L274.33,8.758 C279.781,8.758 284.219,13.193 284.219,18.645 L284.219,46.082 C284.219,51.534 279.781,55.969 274.33,55.969 L268.141,55.969 C262.688,55.969 258.252,51.534 258.252,46.082 L258.252,18.645 Z" id="Shape" fill-rule="nonzero"></path>
        </g>
    </g>
</svg>