<svg enable-background="new 0 0 140 140" height="512" viewBox="0 0 140 140" width="512" xmlns="http://www.w3.org/2000/svg"><circle cx="70" cy="70" fill="#dc594e" r="64"/><path d="m133.9699707 68.9697266c.0100098.3500976.0300293.6904296.0300293 1.0302734 0 35.0600586-28.1999512 63.5200195-63.1500244 63.9799805l-23.7299805-23.7299805.0300293-.0302734c-.6900635-.7797852-1.1199951-1.7998047-1.1199951-2.9296875v-76.5703125c0-2.4697266 2-4.4697266 4.4699707-4.4697266h39c1.5100098 0 2.8400879.75 3.6400146 1.8901367z" opacity=".1"/><path d="m89.4980087 26.2503681h-38.9960174c-2.4673767 0-4.4676476 2.0001354-4.4676476 4.4676495v76.5742111c0 2.467514 2.0002708 4.4676514 4.4676476 4.4676514h38.9960175c2.4674454 0 4.4676514-2.0001373 4.4676514-4.4676514v-76.5742111c-.0000001-2.4675141-2.0002061-4.4676495-4.4676515-4.4676495z" fill="#e6e7e8"/><path d="m49.384945 38.621681h41.229771v57.149391h-41.229771z" fill="#509fd7"/><g fill="#ececec"><path d="m64.03936 32.9206238h-5.8367233c-.2386627 0-.4339333-.1952705-.4339333-.4339333v-.1014671c0-.2386665.1952705-.4339371.4339333-.4339371h5.8367233c.2386627 0 .4339371.1952705.4339371.4339371v.1014671c0 .2386627-.1952743.4339333-.4339371.4339333z"/><path d="m81.7973633 32.9207649h-14.0629044c-.2386627 0-.4339294-.1952705-.4339294-.4339371v-.1014671c0-.2386627.1952667-.4339352.4339294-.4339352h14.0629044c.2386627 0 .4339371.1952724.4339371.4339352v.1014671c0 .2386666-.1952744.4339371-.4339371.4339371z"/><path d="m69.9998322 107.5079193c-2.0636749 0-3.7423096-1.6786346-3.7423096-3.7423096 0-2.0636673 1.6786346-3.7423096 3.7423096-3.7423096 2.0636673 0 3.7423096 1.6786423 3.7423096 3.7423096-.0000001 2.063675-1.6786423 3.7423096-3.7423096 3.7423096z"/></g><circle cx="70" cy="58.199" fill="#4388b9" r="14.301"/><path d="m66.1021805 66.400589c.3028488 1.8834381 1.9348221 3.3283768 3.9023361 3.3283768 1.9675369 0 3.5995331-1.4449387 3.9023666-3.3284225-.6946182-.4833832-.6633301-1.14814-.6633301-1.14814v-2.0587349h-6.4780197l-.0161209 2.0547676s.047432.6687469-.647232 1.152153z" fill="#d6b24e"/><path d="m75.1095657 55.1101151c-.0011139 0-.002182.3531303-.0032501.3531303-.0689392-2.8078384-2.3370132-5.4361038-5.1017609-5.4361038s-5.0328598 2.6282654-5.1017609 5.4361038c-.0010681 0-.0021362-.3531303-.0032501-.3531303-.5636902 0-1.0206108 1.2737312-1.0206108 2.4099274s.4569206 2.0571365 1.0206108 2.0571365v.0734444c0 1.403492 1.222641 3.1792984 2.4712143 4.6267815 1.3921509 1.6139603 3.8753967 1.6139603 5.2675476 0 1.2486191-1.4474831 2.4712601-3.2232895 2.4712601-4.6267815v-.0734444c.563652 0 1.020607-.9209404 1.020607-2.0571365s-.4569549-2.4099274-1.020607-2.4099274z" fill="#ffd25a"/><path d="m74.0642242 68.3006744-.9115906 2.679184-.0055618.0111237-.4224472 1.2450867c-.355751.0722656-.7114716.1278381-1.0783463.166748-.2501373.0277863-.5002365.0500412-.7559433.0667038-.1945267.0111237-.3890991.0222549-.5836258.0222549l-.0333481-2.7736969-.0222626-1.7231064.678154-.694809v-.0055618l.355751-.355751 1.3951416.6837082h.0055618l.6281052.3057098.4780197.2390137z" fill="#e6e7e8"/><path d="m80.356369 68.0561066c-1.3451385 1.4173965-2.9793243 2.5569077-4.8080444 3.3295059-.8559875.355751-1.7509232.6336746-2.6791763.8226776l.2779236-1.217308.0055618-.0111237.6391983-2.8125763.1667862-.7170334 1.2617416-1.4118652v-.0055618s3.0404968.856018 5.1360092 2.0232849z" fill="#304651"/><path d="m73.2528992 65.0262299-3.2517395 1.6933899 2.5364608 1.5841293z" fill="#ececec"/><path d="m69.7508621 67.9949722-.0222549 1.7231064-.0277863 2.7736969c-.1945343 0-.3890991-.0111313-.5836334-.0222549-.2556992-.0166626-.5057983-.0389175-.7559357-.0667038-.3668823-.0389099-.728157-.0944824-1.0839081-.166748l-.4391098-1.2839966-.0055618-.0111313-.8948975-2.6402664.2723541-.1333923.489151-.2390137.611412-.3001404h.0055618l.0055695-.0055695 1.3951721-.6837082.3557205.355751.0055618.0055618z" fill="#e6e7e8"/><path d="m67.1272507 72.2082901c-.9282455-.189003-1.8231506-.4669266-2.6736145-.8226776-1.8287163-.7725983-3.4684677-1.9176407-4.8136024-3.3350754 2.0955124-1.1616974 5.1360054-2.0177155 5.1360054-2.0177155v.0055618l1.2673111 1.4118652.1667786.7170334.6225433 2.7736588.0055618.0111313z" fill="#304651"/><path d="m66.7494125 65.0262299 3.2517472 1.6933899-2.5364685 1.5841293z" fill="#ececec"/><path d="m70.667984 69.6736298.2223511 2.7958908c-.1945267.0111237-.3890991.0222549-.5836258.0222549-.1000519.0055313-.2000961.0055313-.3057098.0055313-.1000824 0-.2001266 0-.3001785-.0055313-.1945343 0-.3890991-.0111313-.5836334-.0222549l.2167892-2.8014526v-.0055618l.0833588-1.0338669-.6002884-1.1672974.2612305-.1611786.9227219-.578064.9282532.578064.2556686.1611786-.6002884 1.1672974.0833511 1.0394287v.0055618z" fill="#db584d"/><path d="m68.3612518 72.4028168c-.3668823-.0389099-.728157-.0944824-1.0839081-.166748-.0500412-.0055618-.1000519-.0166855-.1500931-.0277786-.9282455-.189003-1.8231506-.4669266-2.6736145-.8226776l1.2840042-.744812-1.6675339-.91716.7059326-3.685257v-.0055618l1.9732437-1.0005188h.0055618l.0111313.0444794.5558472 2.5457764.1500549.6781158.1278687.6058884v.0055618z" fill="#344e5c"/><path d="m74.2643204 70.6408005 1.2840042.744812c-.8559875.355751-1.7509232.6336746-2.6791763.8226776-.0500412.0110931-.0944824.0222168-.1445236.0277786-.355751.0722656-.7114716.1278381-1.0783463.166748l.7559433-3.4851608v-.0055313l.1334305-.6058807v-.0055695l.1444931-.6781158.561409-2.5791245.0055618-.0111313h.0055618l1.9676819 1.0060806.7115021 3.685257z" fill="#344e5c"/><path d="m64.068161 52.7035637c-1.018364 1.6835518.1835632 5.1066818.7977295 6.6222763h.2911758c.0505676-.5941467.154808-1.4910164.3480911-1.9830933.0949783-.241806.1184158-.5029411.0588837-.7558212-.1810913-.7693024-.3700485-2.3016357.8186798-2.8110809 0 0 1.7807007-.6335411 3.8375778-.6139641.9928589.0093422 2.4935455-.2942276 3.7283173.9871368.3160553.3279953.4414062.7942162.3741837 1.2447205-.0826035.5536957-.1372757 1.3400993.1188431 1.7591667.277977.4549026.474617 1.5060768.4388504 2.1729355h.2911301c.4013519-.6801758.89048-2.1158104.9520798-5.1002007.0085144-.4125862-.0549164-.8258286-.1853943-1.2173386-.422142-1.8803253-2.3409271-3.1467781-2.3409271-3.1467781-1.1896667-1.1128731-2.1874237-1.2280159-2.1874237-1.2280159-3.338707-1.0745239-4.4132309 1.0360832-4.4132309 1.0360832-1.9955598-.4988212-2.3829423 2.1319543-2.9285661 3.0339738z" fill="#304651"/><path d="m55.333927 76.645874h31.047136v5.184413h-31.047136z" fill="#ececec"/><path d="m55.333927 76.645874h4.775667v5.184413h-4.775667z" fill="#d49145"/><path d="m55.333927 85.438484h31.047136v5.184413h-31.047136z" fill="#ececec"/><path d="m55.333927 85.438484h4.775667v5.184413h-4.775667z" fill="#d49145"/><g fill="#dad7dc"><circle cx="64.227" cy="79.238" r=".815"/><circle cx="68.192" cy="79.238" r=".815"/><circle cx="72.158" cy="79.238" r=".815"/><circle cx="76.123" cy="79.238" r=".815"/><circle cx="80.088" cy="79.238" r=".815"/></g></svg>