<?xml version="1.0" encoding="UTF-8"?>
<svg width="6px" height="20px" viewBox="0 0 6 20" version="1.1" xmlns="http://www.w3.org/2000/svg" xmlns:xlink="http://www.w3.org/1999/xlink">
    <!-- Generator: Sketch 52.2 (67145) - http://www.bohemiancoding.com/sketch -->
    <title>more</title>
    <desc>Created with Sketch.</desc>
    <g id="Page-1" stroke="none" stroke-width="1" fill="none" fill-rule="evenodd">
        <g id="more" transform="translate(2.727273, 10.000000) scale(-1, 1) translate(-2.727273, -10.000000) " fill="#232323">
            <path d="M5.09294627,9.87267634 C5.09294627,11.2791116 3.95290839,12.4191495 2.54647313,12.4191495 C1.14003788,12.4191495 0,11.2791116 0,9.87267634 C0,8.46624109 1.14003788,7.32620321 2.54647313,7.32620321 C3.95290839,7.32620321 5.09294627,8.46624109 5.09294627,9.87267634 Z" id="Path"></path>
            <path d="M5.09294627,2.54647313 C5.09294627,3.95290839 3.95290839,5.09294627 2.54647313,5.09294627 C1.14003788,5.09294627 0,3.95290839 0,2.54647313 C0,1.14003788 1.14003788,0 2.54647313,0 C3.95290839,0 5.09294627,1.14003788 5.09294627,2.54647313 Z" id="Path"></path>
            <path d="M5.09294627,17.1988796 C5.09294627,18.6053148 3.95290839,19.7453527 2.54647313,19.7453527 C1.14003788,19.7453527 0,18.6053148 0,17.1988796 C0,15.7924443 1.14003788,14.6524064 2.54647313,14.6524064 C3.95290839,14.6524064 5.09294627,15.7924443 5.09294627,17.1988796 Z" id="Path"></path>
        </g>
    </g>
</svg>