<?xml version="1.0" encoding="UTF-8"?>
<svg width="64px" height="60px" viewBox="0 0 64 60" version="1.1" xmlns="http://www.w3.org/2000/svg" xmlns:xlink="http://www.w3.org/1999/xlink">
    <!-- Generator: Sketch 52.2 (67145) - http://www.bohemiancoding.com/sketch -->
    <title>comment</title>
    <desc>Created with Sketch.</desc>
    <g id="Page-1" stroke="none" stroke-width="1" fill="none" fill-rule="evenodd">
        <g id="comment" transform="translate(1.000000, 0.000000)" fill="#232323" fill-rule="nonzero">
            <path d="M16.5517241,24.3103448 C14.2696552,24.3103448 12.4137931,26.1662069 12.4137931,28.4482759 C12.4137931,30.7303448 14.2696552,32.5862069 16.5517241,32.5862069 C18.8337931,32.5862069 20.6896552,30.7303448 20.6896552,28.4482759 C20.6896552,26.1662069 18.8337931,24.3103448 16.5517241,24.3103448 Z M16.5517241,30.5172414 C15.4106897,30.5172414 14.4827586,29.5893103 14.4827586,28.4482759 C14.4827586,27.3072414 15.4106897,26.3793103 16.5517241,26.3793103 C17.6927586,26.3793103 18.6206897,27.3072414 18.6206897,28.4482759 C18.6206897,29.5893103 17.6927586,30.5172414 16.5517241,30.5172414 Z" id="Shape"></path>
            <path d="M31.0344828,24.3103448 C28.7524138,24.3103448 26.8965517,26.1662069 26.8965517,28.4482759 C26.8965517,30.7303448 28.7524138,32.5862069 31.0344828,32.5862069 C33.3165517,32.5862069 35.1724138,30.7303448 35.1724138,28.4482759 C35.1724138,26.1662069 33.3165517,24.3103448 31.0344828,24.3103448 Z M31.0344828,30.5172414 C29.8934483,30.5172414 28.9655172,29.5893103 28.9655172,28.4482759 C28.9655172,27.3072414 29.8934483,26.3793103 31.0344828,26.3793103 C32.1755172,26.3793103 33.1034483,27.3072414 33.1034483,28.4482759 C33.1034483,29.5893103 32.1755172,30.5172414 31.0344828,30.5172414 Z" id="Shape"></path>
            <path d="M45.5172414,24.3103448 C43.2351724,24.3103448 41.3793103,26.1662069 41.3793103,28.4482759 C41.3793103,30.7303448 43.2351724,32.5862069 45.5172414,32.5862069 C47.7993103,32.5862069 49.6551724,30.7303448 49.6551724,28.4482759 C49.6551724,26.1662069 47.7993103,24.3103448 45.5172414,24.3103448 Z M45.5172414,30.5172414 C44.3762069,30.5172414 43.4482759,29.5893103 43.4482759,28.4482759 C43.4482759,27.3072414 44.3762069,26.3793103 45.5172414,26.3793103 C46.6582759,26.3793103 47.5862069,27.3072414 47.5862069,28.4482759 C47.5862069,29.5893103 46.6582759,30.5172414 45.5172414,30.5172414 Z" id="Shape"></path>
            <path d="M31.0344828,0.517241379 C13.922069,0.517241379 1.55049042e-15,13.0468966 1.55049042e-15,28.4482759 C1.55049042e-15,33.8317241 1.70275862,39.0465517 4.93241379,43.5558621 C4.32103448,50.3182759 2.68241379,55.3386207 0.303103448,57.7168966 C-0.0113793103,58.0313793 -0.09,58.5124138 0.10862069,58.9096552 C0.284482759,59.2644828 0.646551724,59.4827586 1.03448276,59.4827586 C1.08206897,59.4827586 1.12965517,59.4796552 1.17827586,59.4724138 C1.59724138,59.4134483 11.3296552,58.0127586 18.3693103,53.9493103 C22.3665517,55.562069 26.6244828,56.3793103 31.0344828,56.3793103 C48.1468966,56.3793103 62.0689655,43.8496552 62.0689655,28.4482759 C62.0689655,13.0468966 48.1468966,0.517241379 31.0344828,0.517241379 Z M31.0344828,54.3103448 C27.4272414,54.3103448 23.9317241,53.7217241 20.612069,52.5713793 C24.8275862,49.9375862 24.8368966,49.7513793 24.8337931,49.1410345 C24.8317241,48.78 24.6362069,48.4355172 24.3258621,48.2503448 C23.8551724,47.967931 23.2489655,48.1024138 22.9417241,48.5503448 C22.3748276,49.0003448 19.9375862,50.5624138 17.7548276,51.9103448 C17.7548276,51.9103448 17.7537931,51.9103448 17.7537931,51.9103448 C13.1337931,54.7003448 6.91655172,56.2572414 3.46758621,56.9596552 C5.74551724,53.1631034 6.66517241,47.6648276 7.0262069,43.3458621 C7.04689655,43.0965517 6.97655172,42.8482759 6.82862069,42.6455172 C3.71482759,38.4237931 2.06896552,33.5131034 2.06896552,28.4482759 C2.06896552,14.187931 15.0631034,2.5862069 31.0344828,2.5862069 C47.0058621,2.5862069 60,14.187931 60,28.4482759 C60,42.7086207 47.0058621,54.3103448 31.0344828,54.3103448 Z" id="Shape" stroke="#232323"></path>
        </g>
    </g>
</svg>