<?xml version="1.0" encoding="UTF-8"?>
<svg width="64px" height="60px" viewBox="0 0 64 60" version="1.1" xmlns="http://www.w3.org/2000/svg" xmlns:xlink="http://www.w3.org/1999/xlink">
    <!-- Generator: Sketch 52.2 (67145) - http://www.bohemiancoding.com/sketch -->
    <title>like</title>
    <desc>Created with Sketch.</desc>
    <g id="Page-1" stroke="none" stroke-width="1" fill="none" fill-rule="evenodd">
        <g id="like" fill="#EE0D25">
            <path d="M4.66666667,59.3333333 L11.3333333,59.3333333 C13.9066667,59.3333333 16,57.24 16,54.6666667 L16,24 C16,21.4266667 13.9066667,19.3333333 11.3333333,19.3333333 L4.66666667,19.3333333 C2.09333333,19.3333333 0,21.4266667 0,24 L0,54.6666667 C0,57.24 2.09333333,59.3333333 4.66666667,59.3333333 Z" id="Path"></path>
            <path d="M34.0826667,0 C31.416,0 30.0826667,1.33333333 30.0826667,8 C30.0826667,14.336 23.9466667,19.4346667 20,22.0613333 L20,55.096 C24.2693333,57.072 32.816,60 46.0826667,60 L50.3493333,60 C55.5493333,60 59.976,56.2666667 60.856,51.1466667 L63.8426667,33.8133333 C64.9626667,27.28 59.9493333,21.3333333 53.336,21.3333333 L40.7493333,21.3333333 C40.7493333,21.3333333 42.7493333,17.3333333 42.7493333,10.6666667 C42.7493333,2.66666667 36.7493333,0 34.0826667,0 Z" id="Path"></path>
        </g>
    </g>
</svg>