<?xml version="1.0" encoding="UTF-8"?>
<svg width="70px" height="60px" viewBox="0 0 70 60" version="1.1" xmlns="http://www.w3.org/2000/svg" xmlns:xlink="http://www.w3.org/1999/xlink">
    <!-- Generator: Sketch 52.2 (67145) - http://www.bohemiancoding.com/sketch -->
    <title>share</title>
    <desc>Created with Sketch.</desc>
    <g id="Page-1" stroke="none" stroke-width="1" fill="none" fill-rule="evenodd">
        <g id="share" fill="#232323">
            <path d="M69.0718879,16.4784204 L50.3672766,0.3235393 C49.9732264,-0.0182374035 49.4174727,-0.0958565588 48.9398778,0.122360546 C48.466291,0.341965961 48.1622987,0.819166003 48.1622987,1.34508311 L48.1622987,10.7872325 C33.2334805,11.2053662 26.031354,18.6516305 22.6077763,24.926666 C19.6303546,30.3813363 18.962373,35.7819888 18.8123183,37.9986152 C18.783635,38.3378677 18.7692308,38.6835569 18.7692308,39.0359352 L18.7692308,39.0398477 C18.7692308,39.0398477 18.7692308,39.0411098 18.7692308,39.0424982 L18.7692308,39.0437603 C18.7692308,39.0450224 18.7692308,39.0450224 18.7692308,39.0450224 L18.7692308,39.0489349 L18.7692308,39.050197 C18.7692308,39.050197 18.7692308,39.0514591 18.7692308,39.0528474 L18.7692308,39.0541095 C18.7692308,39.0553716 18.7692308,39.0567599 18.7692308,39.0567599 C18.7692308,39.058022 18.7692308,39.058022 18.7692308,39.058022 L18.7692308,39.0619345 C18.7692308,39.0631966 18.7692308,39.0645849 18.7692308,39.065847 C18.7692308,39.065847 18.7692308,39.0671091 18.7692308,39.0697595 L18.7692308,39.0710216 L18.7692308,39.073672 L18.7692308,39.0749341 C18.7692308,39.0761962 18.7692308,39.0775845 18.7692308,39.0788466 L18.7704833,39.0827591 C18.7704833,39.0827591 18.7704833,39.0827591 18.7704833,39.0840212 C18.7704833,39.0866717 18.7704833,39.0879338 18.7704833,39.0879338 C18.7704833,39.0891959 18.7704833,39.0905842 18.7704833,39.0918463 L18.7704833,39.0957588 L18.7704833,39.0996713 L18.7704833,39.1009334 L18.7704833,39.1048459 C18.7704833,39.106108 18.7704833,39.1074963 18.7704833,39.1087584 C18.7704833,39.1087584 18.7704833,39.1114088 18.7717359,39.1126709 C18.7717359,39.1126709 18.7717359,39.113933 18.7717359,39.1165834 L18.7717359,39.1178455 C18.7717359,39.1191076 18.7717359,39.1204959 18.7717359,39.121758 L18.7717359,39.1256705 C18.7717359,39.1269326 18.7717359,39.128321 18.7717359,39.1295831 C18.7704833,39.1334956 18.7743662,39.1348839 18.7729884,39.1348839 L18.7729884,39.1387964 C18.7729884,39.1400585 18.7729884,39.1414468 18.7729884,39.1427089 L18.7729884,39.1466214 C18.7729884,39.1492718 18.7742409,39.1519222 18.7742409,39.1519222 L18.7742409,39.1558347 C18.7742409,39.1570968 18.7742409,39.1584852 18.7742409,39.1597473 L18.7742409,39.1610094 L18.7742409,39.1636598 L18.7742409,39.1649219 L18.7754935,39.1675723 L18.7754935,39.1688344 C18.7754935,39.1700965 18.7754935,39.1714848 18.7754935,39.1714848 C18.7754935,39.1727469 18.7754935,39.1727469 18.7754935,39.1727469 L18.7754935,39.1766594 L18.7754935,39.1779215 C18.776746,39.1791836 18.776746,39.1791836 18.776746,39.1805719 C18.776746,39.1805719 18.776746,39.181834 18.776746,39.1832223 L18.776746,39.1844844 C18.776746,39.1857465 18.776746,39.1857465 18.776746,39.1857465 L18.776746,39.1883969 C18.7779986,39.1923094 18.7779986,39.1923094 18.7779986,39.1923094 C18.7779986,39.1935715 18.7779986,39.1949598 18.7779986,39.1962219 L18.7779986,39.197484 L18.7779986,39.2001345 L18.7779986,39.2013966 C18.7792511,39.2026587 18.7792511,39.204047 18.7792511,39.204047 C18.7792511,39.2066974 18.7792511,39.2079595 18.7792511,39.2079595 C18.8627958,39.8718241 19.4250627,40.3846154 20.1048181,40.3846154 C20.8419401,40.3846154 21.4395287,39.7838557 21.4409065,39.0409836 L21.4409065,39.0397215 C21.4409065,38.9713157 21.4421591,38.8043399 21.453933,38.5493956 C22.0371174,27.3548203 42.5619252,24.8148439 48.1617977,24.3296926 L48.1617977,33.653457 C48.1617977,34.1793741 48.46579,34.6565741 48.9393768,34.8761796 C49.4155939,35.0943967 49.970095,35.0181658 50.3667756,34.6750008 L69.0713869,18.5201197 C69.3676135,18.2650493 69.5384604,17.8917201 69.5384604,17.4985759 C69.5389615,17.10682 69.3679892,16.7334908 69.0718879,16.4784204 Z M49.6567494,30 L49.6567494,22.1323352 C49.6567494,21.7630439 49.5084321,21.4109701 49.244507,21.1565047 C48.9974363,20.9152057 48.667093,20.7820228 48.3250142,20.7820228 C48.3055382,20.7820228 48.2846889,20.7820228 48.2638395,20.7832888 C47.326244,20.8268391 30.5135706,21.7050612 22.2307692,28.9265612 C24.9708953,21.5983377 31.715216,12.6796422 48.3183974,12.6796422 L48.3250142,12.6796422 C48.6787037,12.6796422 49.0169123,12.5372176 49.2666048,12.2840182 C49.5162974,12.0308188 49.6567494,11.6879868 49.6567494,11.3292032 L49.6567494,3.46153846 L64.9230769,16.7307059 L49.6567494,30 Z" id="Shape" fill-rule="nonzero"></path>
            <path d="M54.0659482,36.6665491 C53.3370463,36.6665491 52.7472243,37.4345458 52.7472243,38.3836359 L52.7472243,53.1310731 C52.7472243,55.0241022 51.5637478,56.5650858 50.1099002,56.5650858 L5.27477188,56.5650858 C3.82092424,56.5650858 2.63744775,55.0241022 2.63744775,53.1310731 L2.63744775,18.7903018 C2.63744775,16.8972727 3.82092424,15.3562891 5.27477188,15.3562891 L23.5379911,15.3562891 C24.266893,15.3562891 24.856715,14.5882923 24.856715,13.6392022 C24.856715,12.6901121 24.266893,11.9221154 23.5379911,11.9221154 L5.27477188,11.9221154 C2.36559308,11.9222764 0,15.0024729 0,18.7903018 L0,53.1309121 C0,56.918741 2.36559308,59.9990986 5.27477188,59.9990986 L50.1100238,59.9990986 C53.019079,59.9990986 55.3847957,56.918902 55.3847957,53.1309121 L55.3847957,38.383475 C55.384672,37.4345458 54.79485,36.6665491 54.0659482,36.6665491 Z" id="Path"></path>
        </g>
    </g>
</svg>