<?xml version="1.0" encoding="UTF-8"?>
<svg width="51px" height="51px" viewBox="0 0 51 51" version="1.1" xmlns="http://www.w3.org/2000/svg" xmlns:xlink="http://www.w3.org/1999/xlink">
    <!-- Generator: Sketch 53.2 (72643) - https://sketchapp.com -->
    <title>home</title>
    <desc>Created with Sketch.</desc>
    <g id="Page-1" stroke="none" stroke-width="1" fill="none" fill-rule="evenodd">
        <g id="home" fill="#FFFFFF" fill-rule="nonzero">
            <path d="M49.5782849,22.1393 C49.5767316,22.1381351 49.5755665,22.1365817 49.5744015,22.1354167 L28.8109924,1.3727842 C27.925964,0.487367532 26.7492918,0 25.4976699,0 C24.2460481,0 23.0693759,0.487367532 22.1839592,1.3727842 L1.43142366,22.1249314 C1.42443348,22.1319216 1.41705498,22.1393 1.41045322,22.1462902 C-0.406980994,23.9742096 -0.403874269,26.9399671 1.41938508,28.7632265 C2.25237573,29.5966054 3.35215643,30.0789245 4.52844022,30.1297971 C4.57659446,30.1344573 4.6247487,30.1367873 4.67329125,30.1367873 L5.50045687,30.1367873 L5.50045687,45.4164383 C5.50045687,48.4404468 7.96098319,50.9005848 10.9849918,50.9005848 L19.1083013,50.9005848 C19.9319719,50.9005848 20.5995294,50.2326389 20.5995294,49.4093567 L20.5995294,37.4298246 C20.5995294,36.0500503 21.7222222,34.9277458 23.1019965,34.9277458 L27.8933434,34.9277458 C29.2731177,34.9277458 30.3954222,36.0500503 30.3954222,37.4298246 L30.3954222,49.4093567 C30.3954222,50.2326389 31.0629797,50.9005848 31.8866503,50.9005848 L40.0099598,50.9005848 C43.0343567,50.9005848 45.4944947,48.4404468 45.4944947,45.4164383 L45.4944947,30.1367873 L46.2618558,30.1367873 C47.5130893,30.1367873 48.6897615,29.6494197 49.5755665,28.7636148 C51.4007675,26.9376371 51.4015442,23.9664428 49.5782849,22.1393 L49.5782849,22.1393 Z M47.4664885,26.6549251 C47.1445541,26.9768595 46.7166027,27.1543311 46.2618558,27.1543311 L44.0032667,27.1543311 C43.1795962,27.1543311 42.5120386,27.8218887 42.5120386,28.6455592 L42.5120386,45.4164383 C42.5120386,46.7958242 41.3897341,47.9181287 40.0099598,47.9181287 L33.3778783,47.9181287 L33.3778783,37.4298246 C33.3778783,34.4058159 30.9177403,31.9452896 27.8933434,31.9452896 L23.1019965,31.9452896 C20.0775996,31.9452896 17.6170733,34.4058159 17.6170733,37.4298246 L17.6170733,47.9181287 L10.9849918,47.9181287 C9.60560584,47.9181287 8.48291301,46.7958242 8.48291301,45.4164383 L8.48291301,28.6455592 C8.48291301,27.8218887 7.81535542,27.1543311 6.99168494,27.1543311 L4.77192982,27.1543311 C4.74862939,27.1527778 4.72571726,27.1516127 4.70202851,27.1512244 C4.25776681,27.1434576 3.84107733,26.9671509 3.52885145,26.6545367 C2.8647889,25.9904743 2.8647889,24.9097222 3.52885145,24.2452714 C3.52923977,24.2452714 3.52923977,24.244883 3.52962808,24.2444947 L3.53079313,24.2433297 L24.2934256,3.48147384 C24.6149716,3.15953947 25.0425348,2.98245614 25.4976699,2.98245614 C25.9524168,2.98245614 26.3799798,3.15953947 26.7019143,3.48147384 L47.4598867,24.2390579 C47.4629934,24.2421646 47.4664885,24.2452714 47.4695952,24.2483781 C48.1301626,24.9136056 48.1289976,25.9920276 47.4664885,26.6549251 Z" id="Shape"></path>
        </g>
    </g>
</svg>